<svg xmlns="http://www.w3.org/2000/svg" xmlns:xlink="http://www.w3.org/1999/xlink" width="512" height="512" version="1.1" viewBox="0 0 512 512"><title>eye icon</title><desc>eye icon from the IconExperience.com G-Collection. Copyright by INCORS GmbH (www.incors.com).</desc><defs><linearGradient id="color-1" x1="0" x2="400" y1="64" y2="432" gradientUnits="userSpaceOnUse"><stop offset="0" stop-color="#f5b673"/><stop offset=".412" stop-color="#f5a557"/><stop offset="1" stop-color="#ec923a"/></linearGradient><radialGradient id="color-2" cx="114.533" cy="224.134" r="413.8" fx="114.533" fy="224.134" gradientUnits="userSpaceOnUse"><stop offset="0" stop-color="#fff"/><stop offset=".839" stop-color="#ebeff3"/><stop offset="1" stop-color="#d8e0e8"/></radialGradient><radialGradient id="color-3" cx="198.304" cy="215.559" r="273.161" fx="198.304" fy="215.559" gradientUnits="userSpaceOnUse"><stop offset="0" stop-color="#89cff7"/><stop offset=".541" stop-color="#129eee"/><stop offset="1" stop-color="#0e76b2"/></radialGradient><radialGradient id="color-4" cx="197.592" cy="215.516" r="138.404" fx="197.592" fy="215.516" gradientUnits="userSpaceOnUse"><stop offset="0" stop-color="#717f8f"/><stop offset=".439" stop-color="#51616f"/><stop offset="1" stop-color="#36414a"/></radialGradient></defs><g fill="none" fill-rule="evenodd" stroke="none" stroke-dashoffset="0" stroke-linecap="butt" stroke-linejoin="miter" stroke-miterlimit="10" stroke-width="1" font-family="none" font-size="none" font-weight="none" text-anchor="none" style="mix-blend-mode:normal"><path id="curve3" fill="url(#color-1)" d="M512,256c-31.5,111 -135,192 -256,192c-121,0 -224.5,-81 -256,-192c31.5,-111 135,-192 256,-192c121,0 224.5,81 256,192z"/><path id="curve2" fill="url(#color-2)" d="M48,256c29,95 114,160 208,160c94,0 179,-65 208,-160c-29,-95 -114,-160 -208,-160c-94,0 -179,65 -208,160z"/><path id="curve1" fill="url(#color-3)" d="M256,112c79.5,0 144,64.5 144,144c0,79.5 -64.5,144 -144,144c-79.5,0 -144,-64.5 -144,-144c0,-79.5 64.5,-144 144,-144z"/><path id="curve0" fill="url(#color-4)" d="M256,208c26.5,0 48,21.5 48,48c0,26.5 -21.5,48 -48,48c-26.5,0 -48,-21.5 -48,-48c0,-26.5 21.5,-48 48,-48z"/></g></svg>