<svg xmlns="http://www.w3.org/2000/svg" xmlns:xlink="http://www.w3.org/1999/xlink" width="512" height="512" version="1.1" viewBox="0 0 512 512"><title>pencil icon</title><desc>pencil icon from the IconExperience.com G-Collection. Copyright by INCORS GmbH (www.incors.com).</desc><defs><linearGradient id="color-1" x1="75" x2="165.656" y1="100" y2="193.343" gradientUnits="userSpaceOnUse"><stop offset="0" stop-color="#ffd041"/><stop offset=".271" stop-color="#ffd861"/><stop offset="1" stop-color="#ffc001"/></linearGradient><linearGradient id="color-2" x1="27" x2="92.806" y1="360" y2="434.406" gradientUnits="userSpaceOnUse"><stop offset="0" stop-color="#f4e0cc"/><stop offset=".522" stop-color="#e8c098"/><stop offset="1" stop-color="#dca264"/></linearGradient><linearGradient id="color-3" x1="13.411" x2="41.948" y1="453" y2="481.861" gradientUnits="userSpaceOnUse"><stop offset="0" stop-color="#717f8f"/><stop offset="1" stop-color="#36414a"/></linearGradient><linearGradient id="color-4" x1="358" x2="470" y1="16" y2="128" gradientUnits="userSpaceOnUse"><stop offset="0" stop-color="#ef5c51"/><stop offset=".341" stop-color="#cf3c31"/><stop offset="1" stop-color="#af1c11"/></linearGradient><linearGradient id="color-5" x1="335" x2="448.137" y1="77" y2="186.024" gradientUnits="userSpaceOnUse"><stop offset="0" stop-color="#fbfcfc"/><stop offset="1" stop-color="#dde4eb"/></linearGradient></defs><g fill="none" fill-rule="evenodd" stroke="none" stroke-dashoffset="0" stroke-linecap="butt" stroke-linejoin="miter" stroke-miterlimit="10" stroke-width="1" font-family="none" font-size="none" font-weight="none" text-anchor="none" style="mix-blend-mode:normal"><path id="curve4" fill="url(#color-1)" d="M341,100l84.5,84.5l0,6l-260,260l-60,-30.5l-30.5,-60l260,-260z"/><path id="curve3" fill="url(#color-2)" d="M165.5,450.5l-93,43l-45.5,5l5,-45.5l43,-93z"/><path id="curve2" fill="url(#color-3)" d="M32,453l40.5,40.5l-37.5,17.5c-6,2.5 -12,0.5 -16.5,-4c-4.5,-4.5 -6.5,-10.5 -4,-16.5z"/><path id="curve1" fill="url(#color-4)" d="M437,20.5l68,68c6,6 6,16.5 0,22.5l-56.5,56.5l-90.5,-90.5l56.5,-56.5c6,-6 16.5,-6 22.5,0z"/><path id="curve0" fill="url(#color-5)" d="M358,77l90.5,90.5l-23,23l-90.5,-90.5z"/></g></svg>