<svg xmlns="http://www.w3.org/2000/svg" xmlns:xlink="http://www.w3.org/1999/xlink" width="512" height="512" version="1.1" viewBox="0 0 512 512"><title>door exit icon</title><desc>door exit icon from the IconExperience.com G-Collection. Copyright by INCORS GmbH (www.incors.com).</desc><defs><linearGradient id="color-1" x1="80" x2="369.269" y1="16" y2="472.922" gradientUnits="userSpaceOnUse"><stop offset="0" stop-color="#717f8f"/><stop offset="1" stop-color="#5c6b7a"/></linearGradient><linearGradient id="color-2" x1="112" x2="227.902" y1="48" y2="480.001" gradientUnits="userSpaceOnUse"><stop offset="0" stop-color="#4d5d6a"/><stop offset="1" stop-color="#3b4852"/></linearGradient><linearGradient id="color-3" x1="288" x2="303.524" y1="0" y2="504.441" gradientUnits="userSpaceOnUse"><stop offset="0" stop-color="#dca162"/><stop offset="1" stop-color="#d08730"/></linearGradient><linearGradient id="color-4" x1="320" x2="400" y1="0" y2="327.999" gradientUnits="userSpaceOnUse"><stop offset="0" stop-color="#cb832f"/><stop offset="1" stop-color="#b16f29"/></linearGradient><linearGradient id="color-5" x1="0" x2="0" y1="128" y2="365.793" gradientUnits="userSpaceOnUse"><stop offset="0" stop-color="#77da26"/><stop offset="1" stop-color="#59a31d"/></linearGradient></defs><g fill="none" fill-rule="evenodd" stroke="none" stroke-dashoffset="0" stroke-linecap="butt" stroke-linejoin="miter" stroke-miterlimit="10" stroke-width="1" font-family="none" font-size="none" font-weight="none" text-anchor="none" style="mix-blend-mode:normal"><path id="curve5" fill="url(#color-1)" d="M80,16l352,0l0,464l-352,0z"/><path id="curve4" fill="url(#color-2)" d="M112,48l288,0l0,432l-288,0z"/><path id="curve3" fill="url(#color-3)" d="M288,0l32,0l80,48l0,432l-80,32l-32,0z"/><path id="curve2" fill="url(#color-4)" d="M320,0l80,48l0,432l-80,32z"/><path id="curve1" fill="#d8e0e8" d="M368,272c0,9 -3.5,16 -8,16l-16,0c-4.5,0 -8,-7 -8,-16c0,-9 3.5,-16 8,-16l36,0c2,0 4,3.5 4,8c0,4.5 -2,8 -4,8z"/><path id="curve0" fill="url(#color-5)" d="M0,208l0,96l112,0l0,80l128,-128l-128,-128l0,80z"/></g></svg>