<svg xmlns="http://www.w3.org/2000/svg" xmlns:xlink="http://www.w3.org/1999/xlink" width="512" height="512" version="1.1" viewBox="0 0 512 512"><title>import icon</title><desc>import icon from the IconExperience.com G-Collection. Copyright by INCORS GmbH (www.incors.com).</desc><defs><linearGradient id="color-1" x1="96" x2="421.519" y1="0" y2="305.247" gradientUnits="userSpaceOnUse"><stop offset="0" stop-color="#77da26"/><stop offset="1" stop-color="#59a31d"/></linearGradient><linearGradient id="color-2" x1="64" x2="384" y1="336" y2="528" gradientUnits="userSpaceOnUse"><stop offset="0" stop-color="#d8e0e8"/><stop offset="1" stop-color="#b3c0cd"/></linearGradient><linearGradient id="color-3" x1="64" x2="624" y1="496" y2="688" gradientUnits="userSpaceOnUse"><stop offset="0" stop-color="#d8e0e8"/><stop offset="1" stop-color="#91a0af"/></linearGradient></defs><g fill="none" fill-rule="evenodd" stroke="none" stroke-dashoffset="0" stroke-linecap="butt" stroke-linejoin="miter" stroke-miterlimit="10" stroke-width="1" font-family="none" font-size="none" font-weight="none" text-anchor="none" style="mix-blend-mode:normal"><path fill="url(#color-1)" d="M192,0l128,0l0,144l96,0l-160,160l-160,-160l96,0z"/><path fill="url(#color-2)" d="M80,336l352,0c9,0 16,7 16,16l0,144c0,9 -7,16 -16,16l-352,0c-9,0 -16,-7 -16,-16l0,-144c0,-9 7,-16 16,-16z"/><path fill="url(#color-3)" d="M448,496c0,9 -7,16 -16,16l-352,0c-9,0 -16,-7 -16,-16z"/></g></svg>