<svg xmlns="http://www.w3.org/2000/svg" xmlns:xlink="http://www.w3.org/1999/xlink" width="512" height="512" version="1.1" viewBox="0 0 512 512"><title>refresh icon</title><desc>refresh icon from the IconExperience.com G-Collection. Copyright by INCORS GmbH (www.incors.com).</desc><defs><linearGradient id="color-1" x1="0" x2="185.093" y1="32" y2="373.171" gradientUnits="userSpaceOnUse"><stop offset="0" stop-color="#4eb6f2"/><stop offset="1" stop-color="#129eee"/></linearGradient><linearGradient id="color-2" x1="208" x2="374.875" y1="112" y2="419.59" gradientUnits="userSpaceOnUse"><stop offset="0" stop-color="#48b4f2"/><stop offset="1" stop-color="#129eee"/></linearGradient></defs><g fill="none" fill-rule="evenodd" stroke="none" stroke-dashoffset="0" stroke-linecap="butt" stroke-linejoin="miter" stroke-miterlimit="10" stroke-width="1" font-family="none" font-size="none" font-weight="none" text-anchor="none" style="mix-blend-mode:normal"><path id="curve1" fill="url(#color-1)" d="M192,32l0,80l-48,0c-79.5,0 -144,64.5 -144,144c0,79.5 64.5,144 144,144l50.5,0l-32,-32l32,-32l-50.5,0c-44,0 -80,-36 -80,-80c0,-44 36,-80 80,-80l48,0l0,80l112,-112z"/><path id="curve0" fill="url(#color-2)" d="M320,480l0,-80l48,0c79.5,0 144,-64.5 144,-144c0,-79.5 -64.5,-144 -144,-144l-50.5,0l32,32l-32,32l50.5,0c44,0 80,36 80,80c0,44 -36,80 -80,80l-48,0l0,-80l-112,112z"/></g></svg>