<svg xmlns="http://www.w3.org/2000/svg" xmlns:xlink="http://www.w3.org/1999/xlink" width="512" height="512" version="1.1" viewBox="0 0 512 512"><title>clock back icon</title><desc>clock back icon from the IconExperience.com G-Collection. Copyright by INCORS GmbH (www.incors.com).</desc><defs><linearGradient id="color-1" x1="464" x2="223.044" y1="432" y2="203.762" gradientUnits="userSpaceOnUse"><stop offset="0" stop-color="#fff"/><stop offset="1" stop-color="#b3c0cd"/></linearGradient><linearGradient id="color-2" x1="448" x2="247.721" y1="416" y2="103.064" gradientUnits="userSpaceOnUse"><stop offset="0" stop-color="#fff"/><stop offset="1" stop-color="#e3e9ee"/></linearGradient><linearGradient id="color-3" x1="0" x2="335.5" y1="32" y2="399.379" gradientUnits="userSpaceOnUse"><stop offset="0" stop-color="#4eb6f2"/><stop offset="1" stop-color="#129eee"/></linearGradient><linearGradient id="color-4" x1="165.484" x2="302.004" y1="141.183" y2="274.405" gradientUnits="userSpaceOnUse"><stop offset="0" stop-color="#d8e0e8"/><stop offset="1" stop-color="#b3c0cd"/></linearGradient><linearGradient id="color-5" x1="165.484" x2="289.716" y1="133.683" y2="288.034" gradientUnits="userSpaceOnUse"><stop offset="0" stop-color="#ed5a4f"/><stop offset="1" stop-color="#e24f44"/></linearGradient></defs><g fill="none" fill-rule="evenodd" stroke="none" stroke-dashoffset="0" stroke-linecap="butt" stroke-linejoin="miter" stroke-miterlimit="10" stroke-width="1" font-family="none" font-size="none" font-weight="none" text-anchor="none" style="mix-blend-mode:normal"><path id="curve5" fill="url(#color-1)" d="M288,80c97,0 176,79 176,176c0,97 -79,176 -176,176c-97,0 -176,-79 -176,-176c0,-97 79,-176 176,-176z"/><path id="curve4" fill="url(#color-2)" d="M288,96c88.5,0 160,71.5 160,160c0,88.5 -71.5,160 -160,160c-88.5,0 -160,-71.5 -160,-160c0,-88.5 71.5,-160 160,-160z"/><path id="curve3" fill="url(#color-3)" d="M288,32c123.5,0 224,100.5 224,224c0,123.5 -100.5,224 -224,224c-79,0 -148.5,-41 -188,-102.5l34.5,-35c30.5,53.5 88,89.5 153.5,89.5c97,0 176,-79 176,-176c0,-97 -79,-176 -176,-176c-97,0 -176,79 -176,176l64,0l-88,88l-88,-88l64,0c0,-123.5 100.5,-224 224,-224z"/><path id="curve2" fill="url(#color-4)" d="M291.5,232l55,-55.5c3,-3 7.5,-3 11,-0.5c6.5,5 12.5,11.5 18,18c2.5,3.5 2.5,8 -0.5,11l-55.5,55c0,1.5 0.5,2.5 0.5,3.5c0,18 -14.5,32 -32,32c-18,0 -32,-14 -32,-32c0,-1 0,-2 0,-3.5l-88,-88c-3,-3 -3.5,-7.5 -0.5,-11c5.5,-6.5 11.5,-12.5 17.5,-18c3.5,-2.5 8,-2.5 11,0.5l88.5,88.5c2,-0.5 4.5,-0.5 7,0z"/><path id="curve1" fill="url(#color-5)" d="M291.5,224l55,-55c3,-3 7.5,-3.5 11,-1c6.5,5.5 12.5,11.5 18,18.5c2.5,3 2.5,7.5 -0.5,10.5l-55.5,55.5c0,1 0.5,2.5 0.5,3.5c0,17.5 -14.5,32 -32,32c-18,0 -32,-14.5 -32,-32c0,-1 0,-2.5 0,-3.5l-88,-88c-3,-3 -3.5,-8 -0.5,-11c5.5,-6.5 11.5,-12.5 17.5,-18c3.5,-2.5 8,-2.5 11,0.5l88.5,88c2,0 4.5,0 7,0z"/><path id="curve0" fill="#d8e0e8" d="M288,240c8.5,0 16,7 16,16c0,9 -7.5,16 -16,16c-9,0 -16,-7 -16,-16c0,-9 7,-16 16,-16z"/></g></svg>