<svg xmlns="http://www.w3.org/2000/svg" xmlns:xlink="http://www.w3.org/1999/xlink" width="512" height="512" version="1.1" viewBox="0 0 512 512"><title>close icon</title><desc>close icon from the IconExperience.com G-Collection. Copyright by INCORS GmbH (www.incors.com).</desc><defs><linearGradient id="color-1" x1="32" x2="480" y1="32" y2="459.637" gradientUnits="userSpaceOnUse"><stop offset="0" stop-color="#ef5c51"/><stop offset="1" stop-color="#c63328"/></linearGradient><radialGradient id="color-2" cx="255.999" cy="388.405" r="346.481" fx="255.999" fy="388.405" gradientUnits="userSpaceOnUse"><stop offset="0" stop-color="#fff"/><stop offset=".6" stop-color="#fff"/><stop offset="1" stop-color="#d8e0e8"/></radialGradient></defs><g fill="none" fill-rule="none" stroke="none" stroke-dashoffset="0" stroke-linecap="butt" stroke-linejoin="miter" stroke-miterlimit="10" stroke-width="1" font-family="none" font-size="none" font-weight="none" text-anchor="none" style="mix-blend-mode:normal"><path id="curve1" fill="url(#color-1)" fill-rule="nonzero" d="M48,32l416,0c9,0 16,7 16,16l0,416c0,9 -7,16 -16,16l-416,0c-9,0 -16,-7 -16,-16l0,-416c0,-9 7,-16 16,-16z"/><path id="curve0" fill="url(#color-2)" fill-rule="evenodd" d="M358,86.5l67.5,67.5l-101.5,102l101.5,102l-67.5,67.5l-102,-101.5l-102,101.5l-67.5,-67.5l101.5,-102l-101.5,-102l67.5,-67.5l102,101.5z"/></g></svg>