<svg xmlns="http://www.w3.org/2000/svg" xmlns:xlink="http://www.w3.org/1999/xlink" width="512" height="512" version="1.1" viewBox="0 0 512 512"><title>gamepad icon</title><desc>gamepad icon from the IconExperience.com G-Collection. Copyright by INCORS GmbH (www.incors.com).</desc><defs><linearGradient id="color-1" x1="0" x2="46.545" y1="208" y2="464" gradientUnits="userSpaceOnUse"><stop offset="0" stop-color="#6b7989"/><stop offset="1" stop-color="#546472"/></linearGradient><linearGradient id="color-2" x1="0" x2="347.273" y1="80" y2="329.602" gradientUnits="userSpaceOnUse"><stop offset="0" stop-color="#b3c0cd"/><stop offset="1" stop-color="#9baab8"/></linearGradient><linearGradient id="color-3" x1="32" x2="144" y1="112" y2="256" gradientUnits="userSpaceOnUse"><stop offset="0" stop-color="#717f8f"/><stop offset="1" stop-color="#51616f"/></linearGradient><linearGradient id="color-4" x1="288" x2="400" y1="112" y2="255.999" gradientUnits="userSpaceOnUse"><stop offset="0" stop-color="#717f8f"/><stop offset="1" stop-color="#51616f"/></linearGradient></defs><g fill="none" fill-rule="evenodd" stroke="none" stroke-dashoffset="0" stroke-linecap="butt" stroke-linejoin="miter" stroke-miterlimit="10" stroke-width="1" font-family="none" font-size="none" font-weight="none" text-anchor="none" style="mix-blend-mode:normal"><path id="curve8" fill="url(#color-1)" d="M0,208l512,0l0,192c0,35.5 -28.5,64 -64,64l-2.5,0c-19.5,0 -36,-7.5 -48.5,-22.5l-48.5,-56c-18.5,-22 -43.5,-33.5 -72.5,-33.5l-40,0c-29,0 -54,11.5 -72.5,33.5l-48.5,56c-12.5,15 -29,22.5 -48.5,22.5l-2.5,0c-35.5,0 -64,-28.5 -64,-64z"/><path id="curve7" fill="url(#color-2)" d="M128,80c27.5,0 53,8.5 73.5,23.5c8.5,5.5 17.5,8.5 27.5,8.5l54,0c10,0 19,-3 27.5,-8.5c20.5,-15 46,-23.5 73.5,-23.5c70.5,0 128,57.5 128,128c0,70.5 -57.5,128 -128,128c-27.5,0 -53,-8.5 -73.5,-23.5c-8.5,-5.5 -17.5,-8.5 -27.5,-8.5l-54,0c-10,0 -19,3 -27.5,8.5c-20.5,15 -46,23.5 -73.5,23.5c-70.5,0 -128,-57.5 -128,-128c0,-70.5 57.5,-128 128,-128z"/><path id="curve6" fill="url(#color-3)" d="M128,112c53,0 96,43 96,96c0,53 -43,96 -96,96c-53,0 -96,-43 -96,-96c0,-53 43,-96 96,-96z"/><path id="curve5" fill="url(#color-4)" d="M384,112c53,0 96,43 96,96c0,53 -43,96 -96,96c-53,0 -96,-43 -96,-96c0,-53 43,-96 96,-96z"/><path id="curve4" fill="#afbdc3" d="M128,160c26.5,0 48,21.5 48,48c0,26.5 -21.5,48 -48,48c-26.5,0 -48,-21.5 -48,-48c0,-26.5 21.5,-48 48,-48z"/><path id="curve3" fill="#ffc001" d="M385,135.5c13,0 24,10.5 24,24c0,13 -11,24 -24,24c-13.5,0 -24,-11 -24,-24c0,-13.5 10.5,-24 24,-24z"/><path id="curve2" fill="#77da26" d="M433,183.5c13,0 24,10.5 24,24c0,13 -11,24 -24,24c-13.5,0 -24,-11 -24,-24c0,-13.5 10.5,-24 24,-24z"/><path id="curve1" fill="#129eee" d="M337,183.5c13,0 24,10.5 24,24c0,13 -11,24 -24,24c-13.5,0 -24,-11 -24,-24c0,-13.5 10.5,-24 24,-24z"/><path id="curve0" fill="#ef5c51" d="M385,231.5c13,0 24,10.5 24,24c0,13 -11,24 -24,24c-13.5,0 -24,-11 -24,-24c0,-13.5 10.5,-24 24,-24z"/></g></svg>