<svg xmlns="http://www.w3.org/2000/svg" xmlns:xlink="http://www.w3.org/1999/xlink" width="512" height="512" version="1.1" viewBox="0 0 512 512"><title>information icon</title><desc>information icon from the IconExperience.com G-Collection. Copyright by INCORS GmbH (www.incors.com).</desc><defs><linearGradient id="color-1" x1="16" x2="16" y1="16" y2="496" gradientUnits="userSpaceOnUse"><stop offset="0" stop-color="#4eb6f2"/><stop offset="1" stop-color="#129eee"/></linearGradient><radialGradient id="color-2" cx="259.075" cy="373.95" r="276.243" fx="259.075" fy="373.95" gradientUnits="userSpaceOnUse"><stop offset="0" stop-color="#fff"/><stop offset=".459" stop-color="#fff"/><stop offset="1" stop-color="#d8e0e8"/></radialGradient></defs><g fill="none" fill-rule="evenodd" stroke="none" stroke-dashoffset="0" stroke-linecap="butt" stroke-linejoin="miter" stroke-miterlimit="10" stroke-width="1" font-family="none" font-size="none" font-weight="none" text-anchor="none" style="mix-blend-mode:normal"><path id="curve1" fill="url(#color-1)" d="M256,16c132.5,0 240,107.5 240,240c0,132.5 -107.5,240 -240,240c-132.5,0 -240,-107.5 -240,-240c0,-132.5 107.5,-240 240,-240z"/><path id="curve0" fill="url(#color-2)" d="M291,411l-69,0l0,-220l69,0z M218,134.5c0,-10 3.5,-18 10.5,-24.5c7,-6 16,-9 27.5,-9c11.5,0 20.5,3 27.5,9c7,6.5 10.5,14.5 10.5,24.5c0,9.5 -3.5,17.5 -10.5,24c-7,6 -16,9.5 -27.5,9.5c-11.5,0 -20.5,-3.5 -27.5,-9.5c-7,-6.5 -10.5,-14.5 -10.5,-24z"/></g></svg>