<svg xmlns="http://www.w3.org/2000/svg" xmlns:xlink="http://www.w3.org/1999/xlink" width="512" height="512" version="1.1" viewBox="0 0 512 512"><title>joystick icon</title><desc>joystick icon from the IconExperience.com G-Collection. Copyright by INCORS GmbH (www.incors.com).</desc><defs><linearGradient id="color-1" x1="64" x2="176" y1="352" y2="352" gradientUnits="userSpaceOnUse"><stop offset="0" stop-color="#e14e43"/><stop offset=".239" stop-color="#ef5c51"/><stop offset="1" stop-color="#b9261b"/></linearGradient><linearGradient id="color-2" x1="336" x2="447.999" y1="352" y2="352" gradientUnits="userSpaceOnUse"><stop offset="0" stop-color="#e14e43"/><stop offset=".239" stop-color="#ef5c51"/><stop offset="1" stop-color="#b9261b"/></linearGradient><linearGradient id="color-3" x1="208" x2="304" y1="192" y2="192" gradientUnits="userSpaceOnUse"><stop offset="0" stop-color="#dd4a3f"/><stop offset=".341" stop-color="#ef5c51"/><stop offset="1" stop-color="#ba271c"/></linearGradient><linearGradient id="color-4" x1="208" x2="304" y1="336" y2="336" gradientUnits="userSpaceOnUse"><stop offset="0" stop-color="#81909f"/><stop offset=".322" stop-color="#91a0af"/><stop offset="1" stop-color="#667684"/></linearGradient><linearGradient id="color-5" x1="224" x2="288" y1="192" y2="201.503" gradientUnits="userSpaceOnUse"><stop offset="0" stop-color="#e14e43"/><stop offset="1" stop-color="#be2b20"/></linearGradient><radialGradient id="color-6" cx="193.408" cy="65.2" r="236.264" fx="193.408" fy="65.2" gradientUnits="userSpaceOnUse"><stop offset="0" stop-color="#f5928b"/><stop offset=".388" stop-color="#ef5c51"/><stop offset="1" stop-color="#af1c11"/></radialGradient><linearGradient id="color-7" x1="32" x2="324.327" y1="384" y2="503.096" gradientUnits="userSpaceOnUse"><stop offset="0" stop-color="#717f8f"/><stop offset=".439" stop-color="#667484"/><stop offset="1" stop-color="#5a6978"/></linearGradient><linearGradient id="color-8" x1="32" x2="66.758" y1="496" y2="512" gradientUnits="userSpaceOnUse"><stop offset="0" stop-color="#5e6b79"/><stop offset=".439" stop-color="#5d6a78"/><stop offset="1" stop-color="#5c6977"/></linearGradient></defs><g fill="none" fill-rule="evenodd" stroke="none" stroke-dashoffset="0" stroke-linecap="butt" stroke-linejoin="miter" stroke-miterlimit="10" stroke-width="1" font-family="none" font-size="none" font-weight="none" text-anchor="none" style="mix-blend-mode:normal"><path id="curve7" fill="url(#color-1)" d="M80,352l80,0c9,0 16,7 16,16l0,48l-112,0l0,-48c0,-9 7,-16 16,-16z"/><path id="curve6" fill="url(#color-2)" d="M352,352l80,0c9,0 16,7 16,16l0,48l-112,0l0,-48c0,-9 7,-16 16,-16z"/><path id="curve5" fill="url(#color-3)" d="M224,336l0,-144l64,0l0,144c9,0 16,7 16,16l0,48l0,32l-96,0l0,-32l0,-48c0,-9 7,-16 16,-16z"/><path id="curve4" fill="url(#color-4)" d="M224,336l64,0c9,0 16,7 16,16l0,48l0,32l-96,0l0,-32l0,-48c0,-9 7,-16 16,-16z"/><path id="curve3" fill="url(#color-5)" d="M224,236l0,-44l64,0l0,44c-10,2.5 -21,4 -32,4c-11,0 -22,-1.5 -32,-4z"/><path id="curve2" fill="url(#color-6)" d="M256,0c62,0 112,50 112,112c0,62 -50,112 -112,112c-62,0 -112,-50 -112,-112c0,-62 50,-112 112,-112z"/><path id="curve1" fill="url(#color-7)" d="M48,384l416,0c9,0 16,7 16,16l0,112l-448,0l0,-112c0,-9 7,-16 16,-16z"/><path id="curve0" fill="url(#color-8)" d="M480,496l0,16l-448,0l0,-16z"/></g></svg>