<svg xmlns="http://www.w3.org/2000/svg" xmlns:xlink="http://www.w3.org/1999/xlink" width="512" height="512" version="1.1" viewBox="0 0 512 512"><title>log in icon</title><desc>log in icon from the IconExperience.com G-Collection. Copyright by INCORS GmbH (www.incors.com).</desc><defs><linearGradient id="color-1" x1="240" x2="512" y1="32" y2="242.27" gradientUnits="userSpaceOnUse"><stop offset="0" stop-color="#72d125"/><stop offset="1" stop-color="#5aa61d"/></linearGradient><linearGradient id="color-2" x1="0" x2="29.541" y1="224" y2="448" gradientUnits="userSpaceOnUse"><stop offset="0" stop-color="#87cef6"/><stop offset="1" stop-color="#55b9f3"/></linearGradient><linearGradient id="color-3" x1="219.5" x2="219.62" y1="320" y2="304" gradientUnits="userSpaceOnUse"><stop offset="0" stop-color="#37adf0"/><stop offset="1" stop-color="#31abf0"/></linearGradient><linearGradient id="color-4" x1="491.5" x2="490.791" y1="384" y2="336" gradientUnits="userSpaceOnUse"><stop offset="0" stop-color="#40b1f1"/><stop offset="1" stop-color="#32abf0"/></linearGradient></defs><g fill="none" fill-rule="evenodd" stroke="none" stroke-dashoffset="0" stroke-linecap="butt" stroke-linejoin="miter" stroke-miterlimit="10" stroke-width="1" font-family="none" font-size="none" font-weight="none" text-anchor="none" style="mix-blend-mode:normal"><path id="curve3" fill="url(#color-1)" d="M240,96l0,96l160,0l0,64l112,-112l-112,-112l0,64z"/><path id="curve2" fill="url(#color-2)" d="M455,288l-242,0c-18,-38 -56.5,-64 -101,-64c-62,0 -112,50 -112,112c0,62 50,112 112,112c44.5,0 83,-26 101,-64l39,0l24,-24.5c5.5,-5 14,-5 19.5,0l24,24.5l0,0l24.5,-24.5c5,-5 13.5,-5 19,0l24.5,24.5l0,0l24,-24.5c5.5,-5 14,-5 19.5,0l24,24.5c5,0 9,-2.5 11.5,-6.5l29,-49c3.5,-5.5 3.5,-13 -2,-16.5l-29,-20c-3,-2 -5.5,-4 -9.5,-4z M64,304c17.5,0 32,14.5 32,32c0,17.5 -14.5,32 -32,32c-17.5,0 -32,-14.5 -32,-32c0,-17.5 14.5,-32 32,-32z"/><path id="curve1" fill="url(#color-3)" d="M448,304l-228.5,0c1.5,5 2.5,10.5 3.5,16l241,0z"/><path id="curve0" fill="url(#color-4)" d="M213,384l39,0l24,-24.5c5.5,-5 14,-5 19.5,0l24,24.5l0,0l24.5,-24.5c5,-5 13.5,-5 19,0l24.5,24.5l0,0l24,-24.5c5.5,-5 14,-5 19.5,0l24,24.5c5,0 9,-2.5 11.5,-6.5l25,-41.5l-267.5,0c0,17 -4,33.5 -11,48z"/></g></svg>