<svg xmlns="http://www.w3.org/2000/svg" xmlns:xlink="http://www.w3.org/1999/xlink" width="512" height="512" version="1.1" viewBox="0 0 512 512"><title>radio button unselected icon</title><desc>radio button unselected icon from the IconExperience.com G-Collection. Copyright by INCORS GmbH (www.incors.com).</desc><defs><linearGradient id="color-1" x1="0" x2="141.416" y1="160" y2="344.272" gradientUnits="userSpaceOnUse"><stop offset="0" stop-color="#4eb6f2"/><stop offset="1" stop-color="#139eee"/></linearGradient><linearGradient id="color-2" x1="32" x2="118.44" y1="192" y2="304.406" gradientUnits="userSpaceOnUse"><stop offset="0" stop-color="#fff"/><stop offset="1" stop-color="#dcf1fd"/></linearGradient></defs><g fill="none" fill-rule="evenodd" stroke="none" stroke-dashoffset="0" stroke-linecap="butt" stroke-linejoin="miter" stroke-miterlimit="10" stroke-width="1" font-family="none" font-size="none" font-weight="none" text-anchor="none" style="mix-blend-mode:normal"><path id="curve2" fill="url(#color-1)" d="M96,160c53,0 96,43 96,96c0,53 -43,96 -96,96c-53,0 -96,-43 -96,-96c0,-53 43,-96 96,-96z"/><path id="curve1" fill="url(#color-2)" d="M96,192c35.5,0 64,28.5 64,64c0,35.5 -28.5,64 -64,64c-35.5,0 -64,-28.5 -64,-64c0,-35.5 28.5,-64 64,-64z"/><path id="curve0" fill="#91a0af" d="M224,208l288,0l0,96l-288,0z"/></g></svg>