<svg xmlns="http://www.w3.org/2000/svg" xmlns:xlink="http://www.w3.org/1999/xlink" width="512" height="512" version="1.1" viewBox="0 0 512 512"><title>floppy disk icon</title><desc>floppy disk icon from the IconExperience.com G-Collection. Copyright by INCORS GmbH (www.incors.com).</desc><defs><linearGradient id="color-1" x1="32" x2="430.221" y1="32" y2="430.221" gradientUnits="userSpaceOnUse"><stop offset="0" stop-color="#717f8f"/><stop offset="1" stop-color="#51616f"/></linearGradient><linearGradient id="color-2" x1="96" x2="185.68" y1="32" y2="272.002" gradientUnits="userSpaceOnUse"><stop offset="0" stop-color="#eaf6fe"/><stop offset="1" stop-color="#cbe9fb"/></linearGradient><linearGradient id="color-3" x1="416" x2="415.45" y1="272" y2="270.877" gradientUnits="userSpaceOnUse"><stop offset="0" stop-color="#ff7901"/><stop offset="1" stop-color="#f77501"/></linearGradient><linearGradient id="color-4" x1="128" x2="288.555" y1="320" y2="480.555" gradientUnits="userSpaceOnUse"><stop offset="0" stop-color="#fff"/><stop offset="1" stop-color="#e1e7ed"/></linearGradient></defs><g fill="none" fill-rule="nonzero" stroke="none" stroke-dashoffset="0" stroke-linecap="butt" stroke-linejoin="miter" stroke-miterlimit="10" stroke-width="1" font-family="none" font-size="none" font-weight="none" text-anchor="none" style="mix-blend-mode:normal"><path id="curve3" fill="url(#color-1)" d="M480,48l0,416c0,9 -7,16 -16,16l-400,0l-32,-32l0,-400c0,-9 7,-16 16,-16l416,0c9,0 16,7 16,16z"/><path id="curve2" fill="url(#color-2)" d="M96,32l320,0l0,224c0,9 -7,16 -16,16l-288,0c-9,0 -16,-7 -16,-16z"/><path id="curve1" fill="url(#color-3)" d="M416,208l0,48c0,9 -7,16 -16,16l-288,0c-9,0 -16,-7 -16,-16l0,-48z"/><path id="curve0" fill="url(#color-4)" d="M384,336l0,144l-256,0l0,-144c0,-9 7,-16 16,-16l224,0c9,0 16,7 16,16z M160,336l0,112l64,0l0,-112z"/></g></svg>