<svg xmlns="http://www.w3.org/2000/svg" xmlns:xlink="http://www.w3.org/1999/xlink" width="512" height="512" version="1.1" viewBox="0 0 512 512"><title>window gear icon</title><desc>window gear icon from the IconExperience.com G-Collection. Copyright by INCORS GmbH (www.incors.com).</desc><defs><linearGradient id="color-1" x1="0" x2="283.785" y1="64" y2="331.092" gradientUnits="userSpaceOnUse"><stop offset="0" stop-color="#40b0f1"/><stop offset="1" stop-color="#129eee"/></linearGradient><linearGradient id="color-2" x1="0" x2="153.869" y1="128" y2="464" gradientUnits="userSpaceOnUse"><stop offset="0" stop-color="#e1f2fd"/><stop offset="1" stop-color="#cceafb"/></linearGradient><linearGradient id="color-3" x1="121.628" x2="247.788" y1="160" y2="439.83" gradientUnits="userSpaceOnUse"><stop offset="0" stop-color="#c3e7fb"/><stop offset="1" stop-color="#9dd7f8"/></linearGradient><linearGradient id="color-4" x1="113.628" x2="247.952" y1="152" y2="396.002" gradientUnits="userSpaceOnUse"><stop offset="0" stop-color="#91a0af"/><stop offset="1" stop-color="#717f8f"/></linearGradient><linearGradient id="color-5" x1="176" x2="283.094" y1="208" y2="368" gradientUnits="userSpaceOnUse"><stop offset="0" stop-color="#d4dce5"/><stop offset="1" stop-color="#afbbc7"/></linearGradient></defs><g fill="none" fill-rule="nonzero" stroke="none" stroke-dashoffset="0" stroke-linecap="butt" stroke-linejoin="miter" stroke-miterlimit="10" stroke-width="1" font-family="none" font-size="none" font-weight="none" text-anchor="none" style="mix-blend-mode:normal"><path id="curve5" fill="url(#color-1)" d="M512,80l0,384l-512,0l0,-384c0,-9 7,-16 16,-16l480,0c9,0 16,7 16,16z"/><path id="curve4" fill="url(#color-2)" d="M0,128l512,0l0,336l-512,0z"/><path id="curve3" fill="#fff" d="M464,80c9,0 16,7 16,16c0,9 -7,16 -16,16c-9,0 -16,-7 -16,-16c0,-9 7,-16 16,-16z M416,80c9,0 16,7 16,16c0,9 -7,16 -16,16c-9,0 -16,-7 -16,-16c0,-9 7,-16 16,-16z"/><path id="curve2" fill="url(#color-3)" d="M265,197c2,-1 3.5,-2 4.5,-3.5l25,-31c1,-1.5 2.5,-2.5 4.5,-2.5c8,0 16,1 22.5,4c7,3 13,8 18.5,14c1,1.5 1.5,3 1,5l-6,39c0,2 0,4 0.5,6c2.5,2.5 4.5,5 6.5,7.5c1.5,0.5 3.5,1 5.5,1l39.5,0.5c2,0 3.5,0.5 5,2c5.5,6 9,13 11,20c2,7.5 2,15 0.5,23c-0.5,2 -1.5,3 -3,4l-34.5,20c-1.5,1 -3,2 -4,4c-0.5,3 -1.5,6 -2,9.5c0.5,2 1,3.5 2.5,5l24.5,31c1,1.5 1.5,3.5 1.5,5c-1.5,8 -4.5,15 -9,21.5c-4.5,6 -10.5,10.5 -17.5,14.5c-2,1 -3.5,1 -5.5,0l-36.5,-14.5c-2,-0.5 -4,-1 -6,-0.5c-2.5,1.5 -5.5,3 -8.5,4.5c-1.5,1.5 -2,3 -2.5,5l-9,38.5c-0.5,2 -1.5,3.5 -3,4c-7.5,4 -14.5,6 -22,6.5c-7.5,0 -15.5,-1.5 -22.5,-5c-2,-0.5 -3,-2 -3.5,-3.5l-11.5,-38c-0.5,-2 -1.5,-3.5 -3,-5c-3,-1 -6,-2.5 -9,-4c-2,0 -4,0.5 -5.5,1.5l-36,17c-1.5,0.5 -3.5,1 -5,0c-7.5,-3 -13.5,-7.5 -18.5,-13.5c-5,-5.5 -8.5,-12.5 -10.5,-20.5c-0.5,-1.5 0,-3.5 1,-5l22.5,-32.5c1,-1.5 1.5,-3.5 2,-5.5c-1,-3 -2,-6 -2.5,-9.5c-1,-1.5 -3,-2.5 -4.5,-3.5l-35.5,-17.5c-2,-0.5 -3,-2 -3.5,-4c-2,-7.5 -2.5,-15.5 -1,-22.5c1,-7.5 4.5,-14.5 9.5,-21c1,-1.5 2.5,-2.5 4.5,-2.5l39.5,-3c2,0 4,-0.5 5.5,-1.5c1.5,-2.5 3.5,-5.5 5.5,-8c0.5,-1.5 0.5,-3.5 0.5,-5.5l-9,-38.5c-0.5,-2 0,-4 1,-5.5c5,-6.5 10.5,-11.5 17.5,-15c6.5,-3.5 14,-5.5 22,-5.5c2,0 3.5,0.5 5,2l26.5,29c1.5,1.5 3,2.5 5,3.5c3,-0.5 6.5,-0.5 9.5,-0.5z M264,272c-13.5,0 -24,10.5 -24,24c0,13 10.5,24 24,24c13,0 24,-11 24,-24c0,-13.5 -11,-24 -24,-24z"/><path id="curve1" fill="url(#color-4)" d="M257.5,189c1.5,-1 3,-2 4.5,-3.5l24.5,-31c1.5,-1.5 3,-2 5,-2.5c8,0 15.5,1 22.5,4c7,3 13,8 18,14c1.5,1.5 1.5,3.5 1.5,5l-6,39c-0.5,2 0,4 0.5,6c2,2.5 4.5,5 6.5,7.5c1.5,0.5 3.5,1 5.5,1l39.5,0.5c2,0 3.5,0.5 4.5,2c5.5,6 9.5,13 11,20c2,7.5 2.5,15 0.5,23c0,2 -1.5,3 -3,4l-34,20c-2,1 -3.5,2 -4.5,4c-0.5,3 -1,6.5 -2,9.5c0.5,2 1.5,3.5 2.5,5l24.5,31c1.5,1.5 2,3.5 1.5,5c-1.5,8 -4.5,15.5 -9,21.5c-4.5,6 -10,11 -17.5,14.5c-1.5,1 -3.5,1 -5,0l-37,-14.5c-2,-0.5 -4,-1 -5.5,-0.5c-3,1.5 -6,3 -9,4.5c-1,1.5 -2,3 -2.5,5l-9,38.5c0,2 -1.5,3.5 -3,4c-7,4 -14.5,6 -22,6.5c-7.5,0 -15,-1.5 -22.5,-4.5c-1.5,-1 -3,-2.5 -3.5,-4l-11.5,-38c-0.5,-2 -1.5,-3.5 -3,-5c-3,-1 -6,-2.5 -8.5,-4c-2,0 -4,0.5 -6,1.5l-35.5,17c-1.5,0.5 -3.5,1 -5.5,0c-7,-3 -13.5,-7.5 -18.5,-13.5c-4.5,-5.5 -8.5,-12.5 -10,-20.5c-0.5,-1.5 -0.5,-3.5 0.5,-5l22.5,-32.5c1,-1.5 2,-3.5 2,-5.5c-1,-3 -1.5,-6 -2.5,-9.5c-1,-1.5 -2.5,-2.5 -4.5,-3.5l-35.5,-17.5c-1.5,-0.5 -3,-2 -3.5,-3.5c-2,-8 -2.5,-15.5 -1,-23c1.5,-7.5 4.5,-14.5 9.5,-21c1.5,-1.5 3,-2 4.5,-2.5l39.5,-3c2,0 4,-0.5 5.5,-1.5c2,-2.5 4,-5.5 6,-8c0.5,-1.5 0.5,-3.5 0,-5.5l-8.5,-38.5c-0.5,-2 -0.5,-4 1,-5.5c4.5,-6.5 10.5,-11.5 17,-15c6.5,-3.5 14,-5.5 22,-5.5c2,0 4,0.5 5,2l27,29c1.5,1.5 3,2.5 4.5,3.5c3.5,-0.5 6.5,-0.5 10,-0.5z M256,264c-13.5,0 -24,10.5 -24,24c0,13.5 10.5,24 24,24c13.5,0 24,-10.5 24,-24c0,-13.5 -10.5,-24 -24,-24z"/><path id="curve0" fill="url(#color-5)" d="M256,208c44,0 80,36 80,80c0,44 -36,80 -80,80c-44,0 -80,-36 -80,-80c0,-44 36,-80 80,-80z M256,248c-22,0 -40,18 -40,40c0,22 18,40 40,40c22,0 40,-18 40,-40c0,-22 -18,-40 -40,-40z"/></g></svg>